<svg width="61" height="55" viewBox="0 0 61 55" fill="none" xmlns="http://www.w3.org/2000/svg">
<path d="M51.4694 14.3958H50.9694V14.8958V22.7997L50.4784 22.8016C49.8848 22.8038 49.0932 22.8064 48.3006 22.8082C47.5079 22.81 46.7149 22.8108 46.1184 22.8095C45.9259 22.8091 45.7544 22.8084 45.6103 22.8075V14.8958V14.3958H45.1103H36.0743L36.0761 14.024C36.0786 13.4992 36.0816 12.799 36.0836 12.0978C36.0856 11.3969 36.0866 10.6941 36.0851 10.1644C36.0847 10.0216 36.0841 9.89087 36.0833 9.77588H45.1103H45.6103V9.27588V1.34595H50.9694V9.27588V9.77588H51.4694H60.508V14.3958H51.4694ZM41.4307 26.1357V26.6357H41.9307H50.9694V48.6155C50.9694 51.3741 48.3915 53.7355 45.1103 53.7355H6.95577C3.67456 53.7355 1.09668 51.3741 1.09668 48.6155V14.8958C1.09668 12.1373 3.67456 9.77588 6.95577 9.77588H31.8921V17.7058V18.2058H32.3921H41.4307V26.1357ZM6.57454 48.292L5.87567 49.1155H6.95577H45.1103H46.2373L45.481 48.28L32.7628 34.2301L32.38 33.8072L32.0109 34.2421L22.8765 45.0058L16.8936 37.0745L16.5174 36.5758L16.1132 37.0521L6.57454 48.292Z" fill="white" fill-opacity="0.64" stroke="url(#paint0_linear_1799_2126)"/>
<defs>
<linearGradient id="paint0_linear_1799_2126" x1="30.8023" y1="0.845947" x2="30.8023" y2="54.2355" gradientUnits="userSpaceOnUse">
<stop stop-color="#2569C1"/>
<stop offset="1" stop-color="#726AC5"/>
</linearGradient>
</defs>
</svg>
