<svg width="29" height="26" viewBox="0 0 29 26" fill="none" xmlns="http://www.w3.org/2000/svg">
<path d="M20.2698 4.22075L24.8111 8.80211C25.0024 8.99512 25.0024 9.31002 24.8111 9.50303L13.8153 20.5958L9.14306 21.119C8.51875 21.1901 7.9901 20.6568 8.06059 20.027L8.57917 15.3135L19.575 4.22075C19.7663 4.02774 20.0785 4.02774 20.2698 4.22075ZM28.426 3.05763L25.9691 0.579019C25.2038 -0.193006 23.9602 -0.193006 23.1899 0.579019L21.4076 2.37703C21.2163 2.57003 21.2163 2.88494 21.4076 3.07794L25.949 7.65931C26.1403 7.85231 26.4524 7.85231 26.6438 7.65931L28.426 5.8613C29.1913 5.0842 29.1913 3.82965 28.426 3.05763ZM19.3333 17.5788V22.7494H3.22222V6.49619H14.792C14.9531 6.49619 15.1042 6.43016 15.22 6.31842L17.2339 4.28677C17.6165 3.90076 17.3446 3.24556 16.8059 3.24556H2.41667C1.08247 3.24556 0 4.33757 0 5.68353V23.562C0 24.908 1.08247 26 2.41667 26H20.1389C21.4731 26 22.5556 24.908 22.5556 23.562V15.5472C22.5556 15.0037 21.9061 14.7345 21.5234 15.1155L19.5096 17.1471C19.3988 17.2639 19.3333 17.4163 19.3333 17.5788Z" fill="#32292F" fill-opacity="0.15"/>
</svg>
