<svg width="18" height="18" viewBox="0 0 18 18" fill="none" xmlns="http://www.w3.org/2000/svg">
<path d="M15.4286 0H2.57143C1.15127 0 0 1.15127 0 2.57143V15.4286C0 16.8487 1.15127 18 2.57143 18H15.4286C16.8487 18 18 16.8487 18 15.4286V2.57143C18 1.15127 16.8487 0 15.4286 0Z" fill="#649C80"/>
<path d="M8.87506 11.5195L8.86503 17.9999L11.4021 18L11.412 11.5196H13.4211C13.6018 11.5196 13.7539 11.369 13.7752 11.1691L13.9975 9.08022C14.0226 8.84394 13.8569 8.63622 13.6434 8.63622H11.4021V6.88878C11.4021 6.09639 11.5996 5.55639 12.6196 5.55639L13.5641 5.55587C13.7609 5.55574 13.9205 5.37796 13.9205 5.15863V3.39724C13.9205 3.17785 13.7608 3 13.5639 3H12.0248C10.1492 3 8.86509 4.27539 8.86509 6.61774V8.63615H7.35659C7.15914 8.63615 6.99924 8.81491 7 9.03496L7.00724 11.1238C7.00799 11.3426 7.16742 11.5195 7.36383 11.5195H8.87506Z" fill="#EBF8F1"/>
</svg>
