<svg width="414" height="302" viewBox="0 0 414 302" fill="none" xmlns="http://www.w3.org/2000/svg">
<path d="M309.516 206.775C309.516 154.183 266.99 111.55 214.531 111.55C162.072 111.55 119.546 154.183 119.546 206.775C119.546 259.366 162.072 302 214.531 302C266.99 302 309.516 259.366 309.516 206.775Z" fill="#EBF8F1"/>
<path d="M103.263 44.2117C103.263 19.7943 83.5182 0 59.1623 0C34.8064 0 15.062 19.7943 15.062 44.2117V146.239C15.062 170.656 34.8064 190.45 59.1623 190.45C83.5182 190.45 103.263 170.656 103.263 146.239V44.2117Z" fill="white"/>
<path d="M414 155.761C414 131.344 394.256 111.55 369.9 111.55C345.544 111.55 325.799 131.344 325.799 155.761V257.788C325.799 282.206 345.544 302 369.9 302C394.256 302 414 282.206 414 257.788V155.761Z" fill="#A5EBC8"/>
<path d="M55.7699 206.775H1.49263C-24.7368 206.775 -46 228.092 -46 254.388C-46 280.683 -24.7368 302 1.49263 302H55.7699C81.9994 302 103.263 280.683 103.263 254.388C103.263 228.092 81.9994 206.775 55.7699 206.775Z" fill="#649C80"/>
<path d="M167.039 95.2252C193.268 95.2252 214.531 73.9083 214.531 47.6126C214.531 21.3169 193.268 0 167.039 0C140.809 0 119.546 21.3169 119.546 47.6126C119.546 73.9083 140.809 95.2252 167.039 95.2252Z" fill="#A5EBC8"/>
<path d="M366.507 0H278.307C252.077 0 230.814 21.3169 230.814 47.6126C230.814 73.9083 252.077 95.2252 278.307 95.2252H366.507C392.737 95.2252 414 73.9083 414 47.6126C414 21.3169 392.737 0 366.507 0Z" fill="#649C80"/>
</svg>
