<svg width="76" height="64" viewBox="0 0 76 64" fill="none" xmlns="http://www.w3.org/2000/svg">
<path d="M38 0C18.9367 9.17374 0.22092 27.869 0.503152 28.5194C3.70038 33.0461 8.32983 35.6554 15.0086 35.5257C14.0882 43.1692 14.6232 58.1405 16.2176 61.3212C19.5285 62.5939 27.9765 63.8308 38 64C48.0234 63.8327 56.4715 62.5939 59.7824 61.3212C61.3768 58.1423 61.9118 43.1692 60.9914 35.5257C67.6702 35.6554 72.2996 33.0461 75.4968 28.5194C75.7791 27.869 57.0654 9.17562 38 0ZM31.5066 24.5774C34.0761 24.1149 36.7973 26.5775 37.5872 30.076C38.377 33.5744 36.9343 36.7852 34.3647 37.2458C31.7951 37.7063 29.0739 35.2456 28.2841 31.7472C27.4942 28.2487 28.937 25.0379 31.5066 24.5774ZM20.6048 41.4021C19.0694 38.4996 19.7476 35.3377 22.1171 34.3395C24.4866 33.3413 27.6522 34.8865 29.1855 37.789C30.7209 40.6916 30.0427 43.8535 27.6732 44.8517C25.3038 45.8499 22.1381 44.3047 20.6048 41.4021ZM47.3052 55.9786C46.8482 56.2568 46.3553 56.4373 45.8288 56.5106C45.3022 56.5839 44.7609 56.5238 44.266 56.3471C42.3662 55.6703 40.3042 55.3413 38.0695 55.3883C35.7337 55.4259 33.0336 55.6948 29.6763 56.379C29.0612 56.505 28.4188 56.5144 27.808 56.3753C26.7318 56.1309 26.1821 55.5632 25.8935 54.8338C25.6724 54.2717 25.6534 53.6626 25.7903 53.0799C27.0351 47.7542 30.9716 44.0189 37.1091 41.5826C37.722 41.3401 38.4254 41.3307 39.0384 41.5713C43.8932 43.47 47.3179 46.8086 48.8954 52.0102C49.3461 53.4972 48.7332 55.112 47.3073 55.9786H47.3052ZM55.412 43.5471C53.9482 46.4797 50.8226 48.0851 48.4299 47.1339C46.0352 46.1826 45.2812 43.0339 46.745 40.1013C48.2088 37.1687 51.3344 35.5633 53.7271 36.5145C56.1218 37.4657 56.8758 40.6145 55.412 43.5471Z" fill="#A5EBC8"/>
<path d="M46.1407 28.8969C45.9592 27.7239 45.3085 26.6843 44.2248 26.2313C42.6881 25.5884 41.0435 26.3272 40.4289 27.9344C39.2355 31.055 40.6823 32.2074 42.9253 37.3131C47.9146 35.2321 49.7227 35.4407 50.9143 32.3202C51.529 30.7129 50.8226 28.9928 49.286 28.3499C48.2004 27.8968 47.0447 28.1807 46.1407 28.8988V28.8969Z" fill="#E52823"/>
</svg>
