<svg width="18" height="18" viewBox="0 0 18 18" fill="none" xmlns="http://www.w3.org/2000/svg">
<path d="M15.4286 0H2.57143C1.15127 0 0 1.15127 0 2.57143V15.4286C0 16.8487 1.15127 18 2.57143 18H15.4286C16.8487 18 18 16.8487 18 15.4286V2.57143C18 1.15127 16.8487 0 15.4286 0Z" fill="#649C80"/>
<path d="M14 5C14.5523 5 15 4.55228 15 4C15 3.44772 14.5523 3 14 3C13.4477 3 13 3.44772 13 4C13 4.55228 13.4477 5 14 5Z" fill="#EBF8F1"/>
<path d="M13 9.5C13 11.9853 10.9853 14 8.5 14C6.01471 14 4 11.9853 4 9.5C4 7.01471 6.01471 5 8.5 5C10.9853 5 13 7.01471 13 9.5ZM5.575 9.5C5.575 11.1154 6.88456 12.425 8.5 12.425C10.1154 12.425 11.425 11.1154 11.425 9.5C11.425 7.88456 10.1154 6.575 8.5 6.575C6.88456 6.575 5.575 7.88456 5.575 9.5Z" fill="#EBF8F1"/>
</svg>
