<svg width="95" height="95" viewBox="0 0 95 95" fill="none" xmlns="http://www.w3.org/2000/svg">
<path d="M56.5528 21.319L63.2818 2.83299C60.7288 1.90299 58.0758 1.18899 55.3398 0.709991L51.9238 20.089C53.5158 20.368 55.0658 20.777 56.5528 21.319Z" fill="#649C80"/>
<path d="M74.634 47.151C74.634 62.329 62.328 74.634 47.151 74.634C31.972 74.634 19.668 62.328 19.668 47.151C19.668 31.972 31.973 19.668 47.151 19.668V0C21.11 0 0 21.109 0 47.151C0 73.191 21.111 94.302 47.151 94.302C73.191 94.302 94.302 73.191 94.302 47.151H74.634Z" fill="#649C80"/>
<path d="M64.8136 26.101L77.4586 11.033C75.3616 9.27301 73.1116 7.69001 70.7296 6.31201L60.8906 23.352C62.2786 24.156 63.5926 25.075 64.8136 26.101Z" fill="#649C80"/>
<path d="M74.2144 42.379L93.5934 38.962C93.1144 36.226 92.3994 33.572 91.4714 31.021L72.9844 37.749C73.5244 39.236 73.9334 40.785 74.2144 42.379Z" fill="#649C80"/>
<path d="M70.9502 33.411L87.9902 23.573C86.6112 21.19 85.0292 18.94 83.2692 16.844L68.2012 29.488C69.2272 30.709 70.1452 32.022 70.9502 33.411Z" fill="#649C80"/>
</svg>
