<svg width="82" height="90" viewBox="0 0 82 90" fill="none" xmlns="http://www.w3.org/2000/svg">
<path fill-rule="evenodd" clip-rule="evenodd" d="M3.38799 29.485C2.72099 31.657 -0.580013 30.641 0.0889872 28.471C2.41099 20.936 6.41999 13.936 12.03 8.48C13.659 6.896 16.065 9.37 14.437 10.954C9.22999 16.019 5.55099 22.486 3.38799 29.485ZM40.682 86.539C44.415 86.539 48.02 83.72 48.815 79.805H32.55C33.347 83.714 36.953 86.539 40.682 86.539ZM49.055 86.384C50.762 84.65 51.994 82.362 52.345 79.66H70.922C73.554 79.66 75.946 78.584 77.678 76.851L77.675 76.848C82.704 71.817 80.642 63.469 74.186 61.108V45.374C74.186 27.007 64.289 9.842 45.998 6.807C45.998 4.665 46.419 0 40.683 0C34.962 0 35.368 4.648 35.368 6.745C16.853 9.595 6.79599 26.856 6.79599 45.373V61.259C-2.84001 65.27 0.0869884 79.66 10.442 79.66H29.019C30.234 88.987 41.835 93.721 49.055 86.384ZM44.22 10.034C41.497 9.963 41.665 9.687 38.87 9.848C20.375 10.908 10.257 27.33 10.257 45.374V62.5H10.255C10.257 64.744 7.77199 63.595 5.61899 66.357C2.50199 70.357 5.40499 76.199 10.441 76.199H70.922C72.599 76.199 74.125 75.512 75.231 74.405L75.234 74.408C79.043 70.176 76.206 64.883 72.163 64.119C71.346 63.981 70.723 63.269 70.723 62.413V45.373C70.725 28.228 61.522 12.198 44.22 10.034ZM38.817 6.248C38.796 5.37 38.749 3.462 40.683 3.462C42.679 3.462 42.573 5.487 42.544 6.414L38.822 6.393L38.817 6.248ZM66.927 10.955C65.298 9.371 67.705 6.896 69.334 8.481C74.942 13.936 78.954 20.938 81.275 28.472C81.943 30.641 78.646 31.659 77.976 29.486C75.824 22.498 72.122 16.007 66.927 10.955Z" fill="black"/>
</svg>
