<svg width="33" height="26" viewBox="0 0 33 26" fill="none" xmlns="http://www.w3.org/2000/svg">
<path d="M32.2666 0.967433C32.6279 1.28826 32.8467 1.73908 32.8751 2.22086C32.9035 2.70264 32.7391 3.17596 32.4181 3.53684L12.9581 25.3887C12.787 25.5809 12.5769 25.7348 12.3419 25.8402C12.1068 25.9456 11.852 26 11.5943 26C11.3367 26 11.0819 25.9456 10.8468 25.8402C10.6118 25.7348 10.4017 25.5809 10.2306 25.3887L0.500589 14.4628C0.197941 14.0994 0.0486584 13.6328 0.0842759 13.1617C0.119893 12.6905 0.337622 12.2516 0.691467 11.9376C1.04531 11.6237 1.50756 11.4594 1.98057 11.4793C2.45358 11.4992 2.9003 11.7019 3.22636 12.0445L11.5934 21.4389L29.6923 1.11675C30.014 0.756482 30.4658 0.538392 30.9485 0.510394C31.4312 0.482396 31.9053 0.646779 32.2666 0.967433Z" fill="#649C80"/>
</svg>
