<svg width="72" height="72" viewBox="0 0 72 72" fill="none" xmlns="http://www.w3.org/2000/svg">
<path d="M48.1511 45.2087C51.5626 41.2328 53.7611 36.3641 54.4897 31.1794C55.2183 25.9906 54.4434 20.7048 52.2575 15.9456C50.0674 11.1864 46.5632 7.15576 42.1535 4.32965C37.7439 1.5036 32.6182 0 27.3788 0C22.9649 0 18.6184 1.06561 14.71 3.10828C10.7973 5.14673 7.4363 8.10333 4.91769 11.7255C2.39486 15.3434 0.781763 19.5214 0.221643 23.8973C-0.338538 28.2733 0.166833 32.7209 1.6957 36.8569C3.22457 40.9969 5.73055 44.7075 8.99886 47.6683C12.2713 50.6292 16.2051 52.7561 20.4758 53.868C24.7465 54.9799 29.2193 55.0431 33.5195 54.0533C37.8197 53.0635 41.8166 51.0504 45.1692 48.1822L68.9444 71.9574L71.9221 68.9797L48.1511 45.2087ZM43.7583 43.7557C39.416 48.1022 33.5238 50.5407 27.3788 50.5407C21.2339 50.5407 15.3417 48.1022 10.9994 43.7557C6.65292 39.4134 4.21432 33.5211 4.21432 27.3762C4.21432 21.2313 6.65292 15.3391 10.9994 10.9968C15.3417 6.65033 21.2339 4.21173 27.3788 4.21173C33.5238 4.21173 39.416 6.65033 43.7583 10.9968C48.1048 15.3391 50.5434 21.2313 50.5434 27.3762C50.5434 33.5211 48.1048 39.4134 43.7583 43.7557Z" fill="black"/>
</svg>
