<svg width="46" height="46" viewBox="0 0 46 46" fill="none" xmlns="http://www.w3.org/2000/svg">
<path d="M23 0C10.3095 0 0 10.3095 0 23C0 27.0791 1.11869 30.8859 2.98438 34.209L0.0371094 44.7305C-0.00997593 44.8988 -0.0121034 45.0766 0.0309391 45.246C0.0739816 45.4155 0.16069 45.5707 0.28242 45.6962C0.404149 45.8217 0.556646 45.913 0.724706 45.9612C0.892765 46.0094 1.07052 46.0127 1.24023 45.9707L12.2109 43.252C15.4346 44.9729 19.0926 46 23 46C35.6905 46 46 35.6905 46 23C46 10.3095 35.6905 0 23 0ZM23 2C34.6095 2 44 11.3905 44 23C44 34.6095 34.6095 44 23 44C19.278 44 15.7921 43.0296 12.7617 41.334C12.5401 41.2101 12.2796 41.1752 12.0332 41.2363L2.42578 43.6172L5.00195 34.4258C5.03882 34.2959 5.04899 34.1599 5.03188 34.0259C5.01476 33.892 4.97069 33.7629 4.90234 33.6465C3.06069 30.5236 2 26.8901 2 23C2 11.3905 11.3905 2 23 2ZM14.6426 11C14.0015 11 13.086 11.2385 12.334 12.0488C11.8823 12.5355 10 14.3695 10 17.5938C10 20.9553 12.3314 23.8558 12.6133 24.2285H12.6152V24.2305C12.5885 24.1953 12.973 24.7522 13.4863 25.4199C13.9996 26.0877 14.7174 26.9646 15.6191 27.9141C17.4226 29.8129 19.9583 32.0074 23.1055 33.3496C24.5548 33.9668 25.6982 34.3394 26.5645 34.6113C28.1698 35.1154 29.6321 35.0388 30.7305 34.877C31.5526 34.7559 32.4569 34.3611 33.3516 33.7949C34.2462 33.2287 35.1231 32.5247 35.5098 31.4551C35.7868 30.6882 35.9276 29.9796 35.9785 29.3965C36.004 29.1049 36.0072 28.8476 35.9883 28.6094C35.9693 28.3711 35.9896 28.1887 35.7676 27.8242C35.302 27.0598 34.7748 27.0399 34.2246 26.7676C33.9189 26.6163 33.0487 26.1913 32.1758 25.7754C31.3039 25.3599 30.5489 24.992 30.084 24.8262C29.7902 24.7205 29.4316 24.5684 28.9141 24.627C28.3966 24.6856 27.8855 25.0589 27.5879 25.5C27.3058 25.9181 26.1704 27.2583 25.8242 27.6523C25.8196 27.6495 25.8497 27.6634 25.7129 27.5957C25.2848 27.3838 24.7612 27.2037 23.9863 26.7949C23.2115 26.3862 22.2423 25.7826 21.1816 24.8477V24.8457C19.603 23.4559 18.4973 21.7111 18.1484 21.125C18.1719 21.097 18.1456 21.1309 18.1953 21.082L18.1973 21.0801C18.5538 20.7289 18.8697 20.3095 19.1367 20.002C19.5153 19.5659 19.6823 19.1814 19.8633 18.8223C20.224 18.1064 20.0231 17.3187 19.8145 16.9043V16.9023C19.8289 16.931 19.7016 16.6502 19.5645 16.3262C19.4269 16.0013 19.2517 15.58 19.0645 15.1309C18.69 14.2325 18.272 13.2249 18.0234 12.6348V12.6328C17.7306 11.9377 17.3344 11.4369 16.8164 11.1953C16.2984 10.9537 15.8408 11.0224 15.8223 11.0215H15.8203C15.4507 11.0044 15.045 11 14.6426 11ZM14.6426 13C15.0281 13 15.4082 13.0047 15.7266 13.0195C16.0541 13.0359 16.0337 13.0372 15.9707 13.0078C15.9067 12.978 15.9935 12.9683 16.1797 13.4102C16.4231 13.988 16.8432 14.9992 17.2188 15.9004C17.4065 16.351 17.5823 16.7738 17.7227 17.1055C17.863 17.4371 17.9391 17.6223 18.0273 17.7988V17.8008L18.0293 17.8027C18.1158 17.9735 18.1082 17.8642 18.0781 17.9238C17.8671 18.3427 17.8385 18.4455 17.625 18.6914C17.3 19.0658 16.9685 19.4834 16.793 19.6562C16.6394 19.8071 16.3624 20.042 16.1895 20.502C16.0162 20.9626 16.0971 21.5946 16.375 22.0664C16.745 22.6946 17.9644 24.6793 19.8594 26.3477C21.0528 27.3997 22.1646 28.0959 23.0527 28.5645C23.9409 29.033 24.6643 29.3066 24.8262 29.3867C25.2105 29.577 25.6307 29.7247 26.1191 29.666C26.6076 29.6074 27.0288 29.311 27.2969 29.0078L27.2988 29.0059C27.6556 28.6013 28.7158 27.3907 29.2246 26.6445C29.2462 26.6521 29.2391 26.6462 29.4082 26.707V26.709H29.4102C29.4874 26.7365 30.4543 27.1693 31.3164 27.5801C32.1785 27.9909 33.0536 28.4179 33.3379 28.5586C33.7482 28.7617 33.9421 28.8939 33.9922 28.8945C33.9956 28.9825 33.999 29.0779 33.9863 29.2227C33.9513 29.6243 33.8439 30.1802 33.6289 30.7754C33.5236 31.0667 32.975 31.6677 32.2832 32.1055C31.5914 32.5433 30.7493 32.8525 30.4375 32.8984C29.4999 33.0366 28.3867 33.087 27.1641 32.7031C26.3163 32.437 25.2593 32.0926 23.8906 31.5098C21.1148 30.326 18.7556 28.3115 17.0703 26.5371C16.2277 25.6499 15.5526 24.824 15.0723 24.1992C14.5929 23.5756 14.3835 23.2511 14.209 23.0215L14.207 23.0195C13.8972 22.6098 12 19.9709 12 17.5938C12 15.078 13.1685 14.0914 13.8008 13.4102C14.1327 13.0525 14.4956 13 14.6426 13Z" fill="white"/>
</svg>
