<svg width="45" height="36" viewBox="0 0 45 36" fill="none" xmlns="http://www.w3.org/2000/svg">
<path d="M1.58203 35.3571H0V0H1.58203V35.3571ZM3.16406 35.332H2.36049V0H3.16406V35.332ZM5.52455 35.332H4.74609V0H5.52455V35.332ZM9.46708 35.332H8.68862V0H9.46708V35.332ZM13.4096 35.332H11.8527V0H13.4096V35.332ZM16.5737 35.332H15.7952V0H16.5737V35.332ZM18.1557 35.332H17.3772V0H18.1557V35.332ZM19.7377 35.332H18.9593V0H19.7377V35.332ZM23.6802 35.332H22.0982V0H23.6802V35.332ZM27.6228 35.332H26.0407V0H27.6228V35.332ZM30.7868 35.332H29.2048V0H30.7868V35.332ZM33.9509 35.332H32.3689V0H33.9509V35.332ZM36.3114 35.332H34.7294V0H36.3114V35.332ZM41.0575 35.332H38.697V0H41.0575V35.332ZM42.6395 35.332H41.8359V0H42.6395V35.332ZM45 35.3571H43.418V0H45V35.3571Z" fill="black"/>
</svg>
