<svg width="27" height="28" viewBox="0 0 27 28" fill="none" xmlns="http://www.w3.org/2000/svg">
<path d="M8.1 4.50219V6.30219H25.2V9.86535L23.2031 16.2022H7.53368L5.28367 0H0V1.8H3.71633L5.96632 18.0022H24.5232L27 10.1422V4.50219H8.1Z" fill="black"/>
<path d="M9.05508 19.8195C8.10063 19.8205 7.18559 20.2002 6.51069 20.8751C5.8358 21.55 5.45616 22.465 5.45508 23.4195C5.45508 24.3742 5.83436 25.2899 6.50949 25.965C7.18462 26.6402 8.1003 27.0195 9.05508 27.0195C10.0099 27.0195 10.9255 26.6402 11.6007 25.965C12.2758 25.2899 12.6551 24.3742 12.6551 23.4195C12.654 22.465 12.2744 21.55 11.5995 20.8751C10.9246 20.2002 10.0095 19.8205 9.05508 19.8195ZM9.05508 25.2195C8.69907 25.2195 8.35106 25.1139 8.05505 24.9161C7.75904 24.7183 7.52833 24.4372 7.3921 24.1083C7.25586 23.7794 7.22021 23.4175 7.28966 23.0683C7.35912 22.7191 7.53055 22.3984 7.78229 22.1467C8.03402 21.8949 8.35475 21.7235 8.70392 21.654C9.05308 21.5846 9.415 21.6202 9.74391 21.7565C10.0728 21.8927 10.3539 22.1234 10.5517 22.4194C10.7495 22.7154 10.8551 23.0635 10.8551 23.4195C10.8545 23.8967 10.6647 24.3542 10.3272 24.6916C9.9898 25.0291 9.53229 25.2189 9.05508 25.2195Z" fill="black"/>
<path d="M21.6566 19.8195C20.7022 19.8205 19.7872 20.2002 19.1123 20.8751C18.4374 21.55 18.0577 22.465 18.0566 23.4195C18.0566 24.3742 18.4359 25.2899 19.1111 25.965C19.7862 26.6402 20.7019 27.0195 21.6566 27.0195C22.6114 27.0195 23.5271 26.6402 24.2022 25.965C24.8774 25.2899 25.2566 24.3742 25.2566 23.4195C25.2556 22.465 24.8759 21.55 24.201 20.8751C23.5261 20.2002 22.6111 19.8205 21.6566 19.8195ZM21.6566 25.2195C21.3006 25.2195 20.9526 25.1139 20.6566 24.9161C20.3606 24.7183 20.1299 24.4372 19.9937 24.1083C19.8574 23.7794 19.8218 23.4175 19.8912 23.0683C19.9607 22.7191 20.1321 22.3984 20.3838 22.1467C20.6356 21.8949 20.9563 21.7235 21.3055 21.654C21.6546 21.5846 22.0166 21.6202 22.3455 21.7565C22.6744 21.8927 22.9555 22.1234 23.1533 22.4194C23.3511 22.7154 23.4566 23.0635 23.4566 23.4195C23.4561 23.8967 23.2663 24.3542 22.9288 24.6916C22.5914 25.0291 22.1339 25.2189 21.6566 25.2195Z" fill="black"/>
</svg>
