<svg width="19" height="22" viewBox="0 0 19 22" fill="none" xmlns="http://www.w3.org/2000/svg">
<path d="M0.855101 1.58912H6.70623V1.08541C6.70623 1.06869 6.70661 1.05278 6.70859 1.03648C6.72173 0.757159 6.84228 0.503713 7.02728 0.319492L7.02606 0.318292C7.21982 0.124533 7.48878 0.00437921 7.7848 0.00157905L7.7888 0.00200014V0H11.2856C11.3043 0 11.3219 0.00160014 11.3398 0.00400028C11.6175 0.0186958 11.8693 0.137271 12.0527 0.321492C12.2461 0.515229 12.3663 0.783792 12.3691 1.07863L12.3687 1.08221H12.3711V1.5891H18.1478C18.1721 1.5891 18.1948 1.59148 18.2182 1.59506C18.4255 1.6138 18.6137 1.7049 18.7505 1.84255L18.7513 1.84375L18.7521 1.84255C18.9013 1.99293 18.9952 2.20183 18.998 2.43338L18.9976 2.43896H19V4.34437C19 4.6026 18.7903 4.81187 18.5321 4.81187H0.4679C0.209675 4.81187 0 4.6026 0 4.34437V2.44216C0 2.42342 0.000800077 2.4051 0.00315811 2.38683V2.38325C0.0186958 2.17158 0.112596 1.97902 0.252646 1.83975L0.251446 1.83932C0.402612 1.68816 0.612308 1.59426 0.8439 1.5911L0.849459 1.59148V1.5891H0.855038L0.855101 1.58912ZM13.6483 8.61394H12.6051V18.4554H13.6483V8.61398V8.61394ZM10.2568 8.61394H9.21317V18.4554H10.2568V8.61398V8.61394ZM6.86536 8.61394H5.82214V18.4554H6.86536V8.61398V8.61394ZM1.90154 5.53886L17.3581 5.54918C17.5972 5.57781 17.8208 5.68763 17.9847 5.84877C18.1673 6.02861 18.2839 6.2725 18.2839 6.54424C18.2839 6.56138 18.2823 6.57808 18.2807 6.59439L18.2803 6.60633L18.278 6.63336L16.9809 20.5525L16.9797 20.5601H16.9809L16.9781 20.5844L16.9693 20.6341L16.9689 20.6349L16.9685 20.6381C16.959 20.6962 16.9475 20.7514 16.9319 20.8008L16.9307 20.8048L16.9287 20.8088L16.9247 20.8195L16.924 20.8231C16.9033 20.8851 16.8778 20.9456 16.8484 21.0001C16.6713 21.3299 16.3431 21.5591 15.9352 21.5591L3.13009 21.556C3.04935 21.552 2.97415 21.54 2.90412 21.5205C2.83134 21.5002 2.76053 21.4704 2.69407 21.4338L2.69247 21.4334L2.69205 21.4338C2.37893 21.2623 2.17006 20.9281 2.13585 20.5525L0.854301 6.60829L0.852301 6.56492L0.851501 6.54462H0.850701C0.850701 6.27208 0.967255 6.02779 1.1503 5.84795C1.32136 5.68045 1.55727 5.56745 1.80915 5.5452L1.83063 5.54435V5.54318L1.88316 5.5408L1.90143 5.54122V5.53884L1.90154 5.53886ZM17.2331 6.47464L1.88124 6.47422C1.85261 6.47822 1.82473 6.49296 1.80446 6.51323C1.7933 6.52439 1.78614 6.53631 1.78614 6.54466H1.78494L1.78614 6.56538L3.06369 20.4686H3.06331L3.06373 20.4706C3.06929 20.5366 3.0991 20.5919 3.14209 20.6154L3.14167 20.6162L3.15641 20.6218L3.16757 20.6238H15.9353C15.9715 20.6238 16.0053 20.5963 16.026 20.5578L16.0407 20.5231L16.0503 20.4853L16.0527 20.4611H16.0535L17.3489 6.56376L17.3486 6.54426C17.3486 6.53631 17.3414 6.52477 17.3307 6.51403C17.3096 6.49333 17.2806 6.47862 17.2515 6.47424L17.2332 6.47466L17.2331 6.47464ZM7.17373 2.52456H0.935548V3.87653H18.0647V2.52456H11.9033C11.645 2.52456 11.4358 2.31529 11.4358 2.05706V1.08227H11.437C11.4358 1.04368 11.4183 1.00627 11.3916 0.979613C11.3677 0.954938 11.3347 0.9394 11.3001 0.935442L7.78888 0.934242C7.75149 0.935463 7.71488 0.952559 7.68782 0.979613L7.68702 0.978813L7.68582 0.979613C7.66275 1.00309 7.64523 1.03452 7.64047 1.06753L7.64167 1.08543V2.05706C7.64167 2.31529 7.43202 2.52456 7.17379 2.52456H7.17373Z" fill="black"/>
</svg>
