<svg width="31" height="33" viewBox="0 0 31 33" fill="none" xmlns="http://www.w3.org/2000/svg">
<path d="M19.0014 32.2708H11.1885C4.04125 32.2708 1.00293 29.1037 1.00293 21.7039V14.9646C1.00293 14.3492 1.49485 13.8389 2.08804 13.8389C2.68124 13.8389 3.17316 14.3492 3.17316 14.9646V21.7039C3.17316 27.8429 5.27105 30.0193 11.1885 30.0193H18.9869C24.9044 30.0193 27.0023 27.8429 27.0023 21.7039V14.9646C27.0023 14.3492 27.4942 13.8389 28.0874 13.8389C28.6806 13.8389 29.1725 14.3492 29.1725 14.9646V21.7039C29.187 29.1037 26.1342 32.2708 19.0014 32.2708Z" fill="#292D32"/>
<path d="M15.0944 17.2612C13.5029 17.2612 12.0561 16.6157 11.0289 15.43C10.0016 14.2442 9.52418 12.6982 9.68333 11.0471L10.6527 1.02066C10.7106 0.450291 11.1736 0 11.7378 0H18.4944C19.0587 0 19.5217 0.435281 19.5795 1.02066L20.5489 11.0471C20.7081 12.6982 20.2306 14.2442 19.2034 15.43C18.1327 16.6157 16.6859 17.2612 15.0944 17.2612ZM12.7072 2.25145L11.8391 11.2723C11.7378 12.2779 12.0272 13.2235 12.6348 13.914C13.8646 15.3249 16.3242 15.3249 17.554 13.914C18.1617 13.2085 18.451 12.2629 18.3497 11.2723L17.4817 2.25145H12.7072Z" fill="#292D32"/>
<path d="M24.2249 17.2612C21.2879 17.2612 18.6691 14.7996 18.3653 11.7676L17.3525 1.2458C17.3236 0.930601 17.4249 0.615398 17.6274 0.375242C17.83 0.135087 18.1193 0 18.4376 0H22.8504C27.1041 0 29.0862 1.84619 29.6794 6.37912L30.0845 10.5518C30.2581 12.323 29.7373 14.004 28.6232 15.2799C27.5092 16.5557 25.9466 17.2612 24.2249 17.2612ZM19.6385 2.25145L20.5355 11.5425C20.7236 13.4187 22.4019 15.0097 24.2249 15.0097C25.3245 15.0097 26.3083 14.5744 27.0173 13.7789C27.7117 12.9834 28.03 11.9177 27.9288 10.777L27.5237 6.6493C27.0751 3.2571 26.019 2.25145 22.8504 2.25145H19.6385Z" fill="#292D32"/>
<path d="M5.89237 17.2612C4.17066 17.2612 2.60809 16.5557 1.49404 15.2799C0.379991 14.004 -0.140864 12.323 0.032754 10.5518L0.423395 6.42415C1.03106 1.84619 3.0132 0 7.26686 0H11.6796C11.9835 0 12.2728 0.135087 12.4898 0.375242C12.7068 0.615398 12.7936 0.930601 12.7647 1.2458L11.752 11.7676C11.4482 14.7996 8.82941 17.2612 5.89237 17.2612ZM7.26686 2.25145C4.09831 2.25145 3.04214 3.24209 2.57916 6.67931L2.18851 10.777C2.07277 11.9177 2.40554 12.9834 3.10001 13.7789C3.79448 14.5744 4.77832 15.0097 5.89237 15.0097C7.71536 15.0097 9.40814 13.4187 9.58176 11.5425L10.4788 2.25145H7.26686Z" fill="#292D32"/>
<path d="M18.7128 32.2707H11.4787C10.8855 32.2707 10.3936 31.7604 10.3936 31.145V27.3926C10.3936 24.2405 12.0574 22.5144 15.0957 22.5144C18.134 22.5144 19.7979 24.2405 19.7979 27.3926V31.145C19.7979 31.7604 19.306 32.2707 18.7128 32.2707ZM12.5638 30.0193H17.6277V27.3926C17.6277 25.5013 16.9187 24.7659 15.0957 24.7659C13.2727 24.7659 12.5638 25.5013 12.5638 27.3926V30.0193Z" fill="#292D32"/>
</svg>
