<svg width="38" height="35" viewBox="0 0 38 35" fill="none" xmlns="http://www.w3.org/2000/svg">
<path d="M20.5152 21.687H1.30948C0.593632 21.687 0 21.1408 0 20.4821V7.6306C0 3.42172 3.71893 0 8.29339 0H24.0072C24.723 0 25.3167 0.54619 25.3167 1.20483V17.2693C25.3167 19.711 23.1691 21.687 20.5152 21.687ZM2.61897 19.2773H20.5152C21.72 19.2773 22.6977 18.3777 22.6977 17.2693V2.40966H8.29339C5.16809 2.40966 2.61897 4.75507 2.61897 7.6306V19.2773Z" fill="#292D32"/>
<path d="M30.9911 31.3256H29.2451C28.5293 31.3256 27.9356 30.7794 27.9356 30.1208C27.9356 29.0124 26.9579 28.1128 25.7532 28.1128C24.5484 28.1128 23.5707 29.0124 23.5707 30.1208C23.5707 30.7794 22.9771 31.3256 22.2612 31.3256H15.2773C14.5615 31.3256 13.9678 30.7794 13.9678 30.1208C13.9678 29.0124 12.9901 28.1128 11.7853 28.1128C10.5806 28.1128 9.60288 29.0124 9.60288 30.1208C9.60288 30.7794 9.00924 31.3256 8.29339 31.3256H6.54742C2.93324 31.3256 0 28.6268 0 25.3015V20.4822C0 19.8235 0.593632 19.2773 1.30948 19.2773H20.5152C21.72 19.2773 22.6977 18.3777 22.6977 17.2693V6.02417C22.6977 5.36553 23.2913 4.81934 24.0072 4.81934H27.2198C28.9483 4.81934 30.5371 5.67077 31.3927 7.05231L34.3783 11.8556C34.6053 12.225 34.6053 12.6909 34.3783 13.0604C34.1513 13.4299 33.7148 13.6548 33.2434 13.6548H30.9911C30.7467 13.6548 30.5546 13.8315 30.5546 14.0564V18.8757C30.5546 19.1006 30.7467 19.2773 30.9911 19.2773H36.229C36.9449 19.2773 37.5385 19.8235 37.5385 20.4822V25.3015C37.5385 28.6268 34.6053 31.3256 30.9911 31.3256ZM30.38 28.916H30.9911C33.1561 28.916 34.9195 27.2935 34.9195 25.3015V21.687H30.9911C29.315 21.687 27.9356 20.4179 27.9356 18.8757V14.0564C27.9356 12.5142 29.2975 11.2451 30.9911 11.2451L29.1229 8.24106C28.7388 7.61455 28.0055 7.229 27.2198 7.229H25.3167V17.2693C25.3167 19.7111 23.1691 21.687 20.5152 21.687H2.61897V25.3015C2.61897 27.2935 4.3824 28.916 6.54742 28.916H7.15852C7.7347 27.0686 9.58542 25.7031 11.7853 25.7031C13.9853 25.7031 15.836 27.0686 16.4122 28.916H21.1438C21.72 27.0686 23.5707 25.7031 25.7706 25.7031C27.9706 25.7031 29.8038 27.0686 30.38 28.916Z" fill="#292D32"/>
<path d="M11.7858 34.5386C9.13193 34.5386 6.98438 32.5626 6.98438 30.1208C6.98438 27.679 9.13193 25.7031 11.7858 25.7031C14.4397 25.7031 16.5872 27.679 16.5872 30.1208C16.5872 32.5626 14.4397 34.5386 11.7858 34.5386ZM11.7858 28.1128C10.5811 28.1128 9.60334 29.0124 9.60334 30.1208C9.60334 31.2293 10.5811 32.1289 11.7858 32.1289C12.9905 32.1289 13.9683 31.2293 13.9683 30.1208C13.9683 29.0124 12.9905 28.1128 11.7858 28.1128Z" fill="#292D32"/>
<path d="M25.7536 34.5386C23.0997 34.5386 20.9521 32.5626 20.9521 30.1208C20.9521 27.679 23.0997 25.7031 25.7536 25.7031C28.4075 25.7031 30.555 27.679 30.555 30.1208C30.555 32.5626 28.4075 34.5386 25.7536 34.5386ZM25.7536 28.1128C24.5489 28.1128 23.5711 29.0124 23.5711 30.1208C23.5711 31.2293 24.5489 32.1289 25.7536 32.1289C26.9583 32.1289 27.9361 31.2293 27.9361 30.1208C27.9361 29.0124 26.9583 28.1128 25.7536 28.1128Z" fill="#292D32"/>
<path d="M36.2289 21.687H30.991C29.3149 21.687 27.9355 20.4179 27.9355 18.8757V14.0564C27.9355 12.5142 29.3149 11.2451 30.991 11.2451H33.2433C33.7147 11.2451 34.1512 11.47 34.3782 11.8556L37.3638 16.6749C37.4686 16.8516 37.5384 17.0604 37.5384 17.2693V20.4822C37.5384 21.1408 36.9448 21.687 36.2289 21.687ZM30.991 13.6548C30.7466 13.6548 30.5545 13.8315 30.5545 14.0564V18.8757C30.5545 19.1006 30.7466 19.2773 30.991 19.2773H34.9195V17.5906L32.4751 13.6548H30.991Z" fill="#292D32"/>
</svg>
