<svg width="58" height="58" viewBox="0 0 58 58" fill="none" xmlns="http://www.w3.org/2000/svg">
<g filter="url(#filter0_d_32_10)">
<path fill-rule="evenodd" clip-rule="evenodd" d="M11.0592 13.7124C12.4066 12.0823 14.1347 10.8676 16.0387 10.4201C18.4991 9.81284 20.696 10.7078 22.4534 12.274C23.6837 13.4247 24.7088 14.8951 25.4411 16.4293C26.1734 17.9636 26.5835 19.5937 26.6128 20.9681C26.6421 22.3745 26.2906 23.5572 25.4411 24.2604C23.8301 25.6029 21.3111 25.0595 19.29 24.644C19.0264 24.58 18.7335 24.5161 18.6749 24.5161C17.3275 24.2284 16.1265 24.4842 14.9256 24.7399C13.9883 24.9316 13.051 25.1234 11.9672 25.1234C10.3855 25.0915 9.36028 24.5161 8.80375 23.5252C8.24722 22.5663 8.15934 21.2239 8.39367 19.6576C8.74517 17.4202 9.71177 15.3425 11.0592 13.7124ZM29.7176 32.1235C31.5044 32.1874 32.7053 33.4659 33.2326 34.9363C33.4083 35.4157 33.5255 35.9591 33.5255 36.4705C33.5548 37.0139 33.4669 37.5253 33.3204 37.9728C32.9397 38.9956 32.1195 39.7308 30.86 39.7308C30.0691 39.7308 29.3076 39.3472 28.6632 38.7399C28.048 38.1646 27.5501 37.3655 27.2865 36.4386C27.14 35.9911 27.1107 35.5436 27.1107 35.0961C27.14 34.4568 27.2865 33.8495 27.5794 33.37C27.8723 32.8586 28.3117 32.4431 28.8975 32.2513C29.1611 32.1554 29.4247 32.1235 29.7176 32.1235ZM35.6344 24.8997C36.6889 24.8997 37.6262 25.3791 38.3292 26.2102C39.0322 27.0412 39.5595 28.2239 39.7352 29.5664C39.7938 29.854 39.8231 30.1417 39.8231 30.4613C39.8231 31.3883 39.618 32.3472 39.208 33.1143C38.7979 33.9454 38.1242 34.5847 37.1576 34.7764C37.0111 34.7764 36.8354 34.8084 36.6596 34.8084C34.785 34.8084 33.5255 33.2422 32.9397 31.3244C32.7639 30.6851 32.6467 30.0139 32.6175 29.3426C32.5882 28.6714 32.676 28.0002 32.8225 27.3928C33.2033 25.9864 34.1113 24.9316 35.6344 24.8997ZM47.8782 34.9363C48.3761 33.4659 49.577 32.1874 51.3638 32.1235C51.686 32.1235 51.9496 32.1554 52.2132 32.2513C52.7991 32.4431 53.2384 32.8586 53.5313 33.37C53.8243 33.8495 53.9707 34.4568 54 35.0961C54 35.5436 53.9414 35.9911 53.8243 36.4386C53.5606 37.3655 53.0627 38.1646 52.4476 38.7399C51.8032 39.3472 51.0123 39.7308 50.2507 39.7308C48.9619 39.7308 48.1711 38.9956 47.7903 37.9728C47.6145 37.5253 47.5559 37.0139 47.5559 36.4705C47.5852 35.9591 47.6731 35.4157 47.8782 34.9363ZM42.7522 26.2102C43.4845 25.3791 44.4218 24.8997 45.4763 24.8997C46.9701 24.9316 47.8781 25.9864 48.2882 27.3928C48.4347 28.0002 48.4933 28.6714 48.464 29.3426C48.464 30.0139 48.3468 30.6851 48.1418 31.3244C47.5852 33.2422 46.2964 34.8084 44.4218 34.8084C44.246 34.8084 44.0996 34.7764 43.9238 34.7764C42.9865 34.5847 42.3128 33.9454 41.8735 33.1143C41.4634 32.3472 41.2876 31.3883 41.2876 30.4613C41.2876 30.1417 41.3169 29.854 41.3462 29.5664C41.5513 28.2239 42.0492 27.0412 42.7522 26.2102ZM34.1699 38.5801C35.5173 36.95 37.2455 35.7673 39.1494 35.2879C41.5806 34.7125 43.8067 35.6075 45.5641 37.1737C46.7944 38.2924 47.8196 39.7947 48.5518 41.329C49.2548 42.8632 49.6942 44.4614 49.7235 45.8678C49.7528 47.2742 49.4013 48.4569 48.5518 49.1601C46.9408 50.4706 44.4218 49.9592 42.4007 49.5436C42.1371 49.4797 41.8442 49.4158 41.7856 49.3838C40.4382 49.1281 39.2373 49.3838 38.0363 49.6395C37.099 49.8313 36.1617 50.0231 35.0779 49.9911C33.4962 49.9911 32.471 49.4158 31.9145 48.393C31.3579 47.434 31.2701 46.1235 31.5044 44.5254C31.8559 42.3199 32.8225 40.2422 34.1699 38.5801ZM6.60691 7.25575C8.42296 7.31967 9.59461 8.56626 10.1219 10.0366C10.2976 10.548 10.4148 11.0594 10.4148 11.5708C10.4441 12.1142 10.3562 12.6256 10.2097 13.0731C9.82894 14.1279 9.00879 14.8631 7.74927 14.8311C6.95841 14.8311 6.19684 14.4795 5.55243 13.8722C4.93732 13.2969 4.43937 12.4978 4.17575 11.5389C4.05858 11.1233 4 10.6439 4 10.1964C4.02929 9.58909 4.17575 8.98178 4.46866 8.47037C4.76157 7.95895 5.20094 7.54342 5.78676 7.35164C6.05038 7.28771 6.314 7.22378 6.60691 7.25575ZM12.5237 0C13.5782 0 14.5155 0.479455 15.2185 1.31051C15.9508 2.14156 16.4487 3.32422 16.6245 4.66669C16.6831 4.95436 16.7124 5.274 16.7124 5.59364C16.7124 6.48862 16.5073 7.44753 16.0972 8.21466C15.6872 9.07767 15.0135 9.71695 14.0469 9.87677C13.9004 9.90873 13.7247 9.90873 13.5489 9.90873C11.6743 9.90873 10.4148 8.34251 9.82894 6.45666C9.65319 5.81738 9.53603 5.11418 9.50674 4.44295C9.47745 3.77171 9.56532 3.10047 9.71178 2.52513C10.0926 1.08676 11.0006 0.0319636 12.5237 0ZM24.7674 10.0366C25.2654 8.56626 26.4663 7.31967 28.2531 7.25575C28.5753 7.22378 28.8389 7.28771 29.1025 7.35164C29.6883 7.54342 30.1277 7.95895 30.4206 8.47037C30.7135 8.98178 30.86 9.58909 30.8893 10.1964C30.8893 10.6439 30.8307 11.1233 30.7135 11.5389C30.4499 12.4978 29.952 13.2969 29.3368 13.8722C28.6924 14.4795 27.9016 14.8311 27.14 14.8311C25.8512 14.8631 25.0603 14.1279 24.6796 13.0731C24.5038 12.6256 24.4452 12.1142 24.4745 11.5708C24.4745 11.0594 24.5624 10.548 24.7674 10.0366ZM19.6415 1.31051C20.3738 0.479455 21.3111 0 22.3656 0C23.8594 0.0319636 24.7674 1.08676 25.1775 2.52513C25.324 3.10047 25.3825 3.77171 25.3825 4.44295C25.3533 5.11418 25.2361 5.81738 25.031 6.45666C24.4745 8.34251 23.1857 9.90873 21.3111 9.90873C21.1353 9.90873 20.9889 9.90873 20.8424 9.87677C19.8758 9.71695 19.2021 9.07767 18.7627 8.21466C18.3527 7.44753 18.1769 6.48862 18.1769 5.59364C18.1769 5.274 18.2062 4.95436 18.2355 4.66669C18.4405 3.32422 18.9385 2.14156 19.6415 1.31051Z" fill="url(#paint0_linear_32_10)"/>
</g>
<defs>
<filter id="filter0_d_32_10" x="0" y="0" width="58" height="58" filterUnits="userSpaceOnUse" color-interpolation-filters="sRGB">
<feFlood flood-opacity="0" result="BackgroundImageFix"/>
<feColorMatrix in="SourceAlpha" type="matrix" values="0 0 0 0 0 0 0 0 0 0 0 0 0 0 0 0 0 0 127 0" result="hardAlpha"/>
<feOffset dy="4"/>
<feGaussianBlur stdDeviation="2"/>
<feComposite in2="hardAlpha" operator="out"/>
<feColorMatrix type="matrix" values="0 0 0 0 0 0 0 0 0 0 0 0 0 0 0 0 0 0 0.25 0"/>
<feBlend mode="normal" in2="BackgroundImageFix" result="effect1_dropShadow_32_10"/>
<feBlend mode="normal" in="SourceGraphic" in2="effect1_dropShadow_32_10" result="shape"/>
</filter>
<linearGradient id="paint0_linear_32_10" x1="25.3311" y1="-0.688465" x2="34.0179" y2="50.4696" gradientUnits="userSpaceOnUse">
<stop stop-color="white"/>
<stop offset="0.302" stop-color="white"/>
<stop offset="1" stop-color="white"/>
</linearGradient>
</defs>
</svg>
